<svg viewBox="0 0 1024 1024" version="1.1" xmlns="http://www.w3.org/2000/svg"><path d="M837.472863 481.297228l-31.474986-31.471987-168.43893-168.440929 49.45698-49.374979c26.395989-26.435989 39.798983-61.488974 39.716983-96.08496a135.454943 135.454943 0 0 0-39.716983-96.08296C660.454938 13.322424 625.485952-0.08257 590.849967 0.00043c-34.636985-0.083-69.606971 13.321994-96.16996 39.840983L198.684132 337.129288a149.671937 149.671937 0 0 0-12.156995 10.905996c-26.476989 26.435989-39.798983 61.404974-39.798984 96.08496 0 34.636985 13.321994 69.564971 39.798984 96.084959l199.913916 199.952916-49.37598 49.457979c-26.476989 26.435989-39.798983 61.365974-39.798983 96.08496 0 34.679985 13.403994 69.646971 39.798983 96.08496 26.476989 26.434989 61.280974 39.798983 96.00296 39.798983h0.164c34.636985 0 69.607971-13.278994 96.00196-39.798983h0.082l308.15587-308.236871c26.476989-26.392989 39.880983-61.446974 39.798984-96.084959 0.083-34.676985-13.321994-69.647971-39.797984-96.16696M541.558988 86.468394c13.651994-13.655994 31.304987-20.399991 49.290979-20.481992 18.067992 0.082 35.716985 6.742997 49.372979 20.481992 13.737994 13.737994 20.397991 31.473987 20.483992 49.456979-0.086 17.985992-6.745997 35.636985-20.483992 49.374979l-19.481992 19.482992-206.241913 206.280913c-5.828998-23.10399-17.733993-45.042981-35.801985-63.110973-17.733993-17.735993-39.382983-29.599988-62.196974-35.469985L541.558988 86.468394z m-58.950976 848.606643c-13.737994 13.696994-31.471987 20.439991-49.539979 20.439992-17.900992 0-35.553985-6.742997-49.291979-20.439992-13.739994-13.737994-20.400991-31.390987-20.400992-49.373979 0-17.984992 6.660997-35.719985 20.400992-49.372979l49.373979-49.457979 17.900993 17.900992 31.556986 31.471987c13.737994 13.737994 20.398991 31.472987 20.482992 49.457979-0.084 17.983992-6.744997 35.635985-20.482992 49.373979M790.845883 626.840167L564.869978 852.771072a134.190944 134.190944 0 0 0-35.553985-63.153974l-31.553987-31.556986-264.524889-264.563889c-13.737994-13.739994-20.481991-31.389987-20.481991-49.375979 0-17.982992 6.744997-35.635985 20.481991-49.33298 13.738994-13.819994 31.390987-20.480991 49.374979-20.563991 17.985992 0.083 35.719985 6.744997 49.45798 20.439991 13.655994 13.737994 20.316991 31.474987 20.398991 49.45798-0.082 17.985992-6.742997 35.635985-20.398991 49.375979l46.62698 46.70898 212.152911-212.109911 168.438929 168.480929 31.556987 31.514987c13.651994 13.654994 20.479991 31.389987 20.479991 49.37298 0 17.984992-6.827997 35.637985-20.479991 49.374979M575.110973 386.420268L399.013047 562.643194l46.626981 46.62698 176.179926-176.140926-46.708981-46.70898z m70.525971 70.48197L469.453018 633.167164l46.62698 46.626981 176.265926-176.222926-46.70898-46.668981zM539.892988 703.564135l46.708981 46.75398L762.784895 574.050189l-46.626981-46.70898-176.264926 176.222926z"></path></svg>